<?xml version="1.0" encoding="UTF-8"?>
<svg width="16px" height="16px" viewBox="0 0 16 16" version="1.1" xmlns="http://www.w3.org/2000/svg" xmlns:xlink="http://www.w3.org/1999/xlink">
    <title>切片</title>
    <g id="XC_P06_个人中心" stroke="none" stroke-width="1" fill="none" fill-rule="evenodd">
        <g id="XC_P06_个人中心/XC_P06.1.1_个人资料" transform="translate(-856.000000, -161.000000)" fill="#1AB370">
            <g id="个人资料" transform="translate(624.000000, 96.000000)">
                <g id="输入框" transform="translate(124.000000, 48.000000)">
                    <g id="上传头像" transform="translate(78.000000, 0.000000)">
                        <g id="形状结合" transform="translate(30.000000, 17.000000)">
                            <path d="M8,0 C12.418278,0 16,3.581722 16,8 C16,12.418278 12.418278,16 8,16 C3.581722,16 0,12.418278 0,8 C0,3.581722 3.581722,0 8,0 Z M8,1 C4.13400675,1 1,4.13400675 1,8 C1,11.8659932 4.13400675,15 8,15 C11.8659932,15 15,11.8659932 15,8 C15,4.13400675 11.8659932,1 8,1 Z M8,3.5 C8.24545989,3.5 8.44960837,3.67687516 8.49194433,3.91012437 L8.5,4 L8.5,7.5 L12,7.5 C12.2761424,7.5 12.5,7.72385763 12.5,8 C12.5,8.24545989 12.3231248,8.44960837 12.0898756,8.49194433 L12,8.5 L8.5,8.5 L8.5,12 C8.5,12.2761424 8.27614237,12.5 8,12.5 C7.75454011,12.5 7.55039163,12.3231248 7.50805567,12.0898756 L7.5,12 L7.5,8.5 L4,8.5 C3.72385763,8.5 3.5,8.27614237 3.5,8 C3.5,7.75454011 3.67687516,7.55039163 3.91012437,7.50805567 L4,7.5 L7.5,7.5 L7.5,4 C7.5,3.72385763 7.72385763,3.5 8,3.5 Z"></path>
                        </g>
                    </g>
                </g>
            </g>
        </g>
    </g>
</svg>